HIERARCHY
ROOT Hips
{
	OFFSET 0.000000 100.481300 0.000000
	CHANNELS 6 Xposition Yposition Zposition Xrotation Yrotation Zrotation
	JOINT Spine
	{
		OFFSET -0.279200 12.230698 -2.892100
		CHANNELS 3 Xrotation Yrotation Zrotation
		JOINT Spine1
		{
			OFFSET -0.325700 14.269203 -3.374200
			CHANNELS 3 Xrotation Yrotation Zrotation
			JOINT Spine2
			{
				OFFSET -0.372300 16.307602 -0.352600
				CHANNELS 3 Xrotation Yrotation Zrotation
				JOINT Neck
				{
					OFFSET -0.418800 17.814194 8.416900
					CHANNELS 3 Xrotation Yrotation Zrotation
					JOINT Head
					{
						OFFSET 0.000000 7.031097 3.806800
						CHANNELS 3 Xrotation Yrotation Zrotation
						JOINT HeadTop_End
						{
							OFFSET 0.000000 24.646606 12.978600
							CHANNELS 3 Xrotation Yrotation Zrotation
							End Site
							{
								OFFSET 0.000000 27.854965 0.000000
							}
						}
					}
				}
				JOINT LeftShoulder
				{
					OFFSET 16.952999 14.495407 -7.737500
					CHANNELS 3 Xrotation Yrotation Zrotation
					JOINT LeftArm
					{
						OFFSET 9.308998 -2.777710 0.208600
						CHANNELS 3 Xrotation Yrotation Zrotation
						JOINT LeftForeArm
						{
							OFFSET 29.972298 0.000000 0.000000
							CHANNELS 3 Xrotation Yrotation Zrotation
							JOINT LeftHand
							{
								OFFSET 26.026505 0.000000 0.000000
								CHANNELS 3 Xrotation Yrotation Zrotation
								JOINT LeftHandThumb1
								{
									OFFSET 12.240501 -7.147949 9.207150
									CHANNELS 3 Xrotation Yrotation Zrotation
									JOINT LeftHandThumb2
									{
										OFFSET 4.138618 -2.389435 2.389433
										CHANNELS 3 Xrotation Yrotation Zrotation
										JOINT LeftHandThumb3
										{
											OFFSET 2.726913 -1.574387 1.574386
											CHANNELS 3 Xrotation Yrotation Zrotation
											JOINT LeftHandThumb4
											{
												OFFSET 3.941010 -2.275345 2.275342
												CHANNELS 3 Xrotation Yrotation Zrotation
												End Site
												{
													OFFSET -0.005798 5.087799 0.009903
												}
											}
										}
									}
								}
								JOINT LeftHandIndex1
								{
									OFFSET 24.424698 -1.985611 5.953459
									CHANNELS 3 Xrotation Yrotation Zrotation
									JOINT LeftHandIndex2
									{
										OFFSET 6.426697 0.000000 0.000000
										CHANNELS 3 Xrotation Yrotation Zrotation
										JOINT LeftHandIndex3
										{
											OFFSET 5.337898 0.000000 0.000000
											CHANNELS 3 Xrotation Yrotation Zrotation
											JOINT LeftHandIndex4
											{
												OFFSET 4.409401 0.000000 0.000000
												CHANNELS 3 Xrotation Yrotation Zrotation
												End Site
												{
													OFFSET 0.000000 4.409363 0.014373
												}
											}
										}
									}
								}
								JOINT LeftHandMiddle1
								{
									OFFSET 23.810104 0.000000 0.000000
									CHANNELS 3 Xrotation Yrotation Zrotation
									JOINT LeftHandMiddle2
									{
										OFFSET 7.176498 0.000000 0.000000
										CHANNELS 3 Xrotation Yrotation Zrotation
										JOINT LeftHandMiddle3
										{
											OFFSET 6.774902 0.000000 0.000000
											CHANNELS 3 Xrotation Yrotation Zrotation
											JOINT LeftHandMiddle4
											{
												OFFSET 5.403328 0.000000 0.000000
												CHANNELS 3 Xrotation Yrotation Zrotation
												End Site
												{
													OFFSET -0.027702 5.403244 0.017414
												}
											}
										}
									}
								}
								JOINT LeftHandRing1
								{
									OFFSET 22.908401 -0.839279 -6.020567
									CHANNELS 3 Xrotation Yrotation Zrotation
									JOINT LeftHandRing2
									{
										OFFSET 6.337502 0.000000 0.000000
										CHANNELS 3 Xrotation Yrotation Zrotation
										JOINT LeftHandRing3
										{
											OFFSET 5.779297 0.000000 0.000000
											CHANNELS 3 Xrotation Yrotation Zrotation
											JOINT LeftHandRing4
											{
												OFFSET 4.965698 0.000000 0.000000
												CHANNELS 3 Xrotation Yrotation Zrotation
												End Site
												{
													OFFSET 0.000000 4.965668 0.016186
												}
											}
										}
									}
								}
								JOINT LeftHandPinky1
								{
									OFFSET 20.037003 -1.530319 -10.950146
									CHANNELS 3 Xrotation Yrotation Zrotation
									JOINT LeftHandPinky2
									{
										OFFSET 5.254700 0.000000 0.000000
										CHANNELS 3 Xrotation Yrotation Zrotation
										JOINT LeftHandPinky3
										{
											OFFSET 4.810204 0.000000 0.000000
											CHANNELS 3 Xrotation Yrotation Zrotation
											JOINT LeftHandPinky4
											{
												OFFSET 3.647202 0.000000 0.000000
												CHANNELS 3 Xrotation Yrotation Zrotation
												End Site
												{
													OFFSET 0.000000 3.647186 0.011889
												}
											}
										}
									}
								}
							}
						}
					}
				}
				JOINT RightShoulder
				{
					OFFSET -15.141001 14.495407 -7.737500
					CHANNELS 3 Xrotation Yrotation Zrotation
					JOINT RightArm
					{
						OFFSET -9.308998 -2.777710 0.208500
						CHANNELS 3 Xrotation Yrotation Zrotation
						JOINT RightForeArm
						{
							OFFSET -29.972300 0.000000 0.000000
							CHANNELS 3 Xrotation Yrotation Zrotation
							JOINT RightHand
							{
								OFFSET -26.026505 0.000000 0.000000
								CHANNELS 3 Xrotation Yrotation Zrotation
								JOINT RightHandThumb1
								{
									OFFSET -12.240601 -7.148026 9.207092
									CHANNELS 3 Xrotation Yrotation Zrotation
									JOINT RightHandThumb2
									{
										OFFSET -4.138618 -2.389435 2.389433
										CHANNELS 3 Xrotation Yrotation Zrotation
										JOINT RightHandThumb3
										{
											OFFSET -2.726974 -1.574417 1.574421
											CHANNELS 3 Xrotation Yrotation Zrotation
											JOINT RightHandThumb4
											{
												OFFSET -3.941010 -2.275345 2.275343
												CHANNELS 3 Xrotation Yrotation Zrotation
												End Site
												{
													OFFSET 0.005814 5.087799 0.009927
												}
											}
										}
									}
								}
								JOINT RightHandIndex1
								{
									OFFSET -24.424698 -1.985657 5.953444
									CHANNELS 3 Xrotation Yrotation Zrotation
									JOINT RightHandIndex2
									{
										OFFSET -6.426697 0.000000 0.000000
										CHANNELS 3 Xrotation Yrotation Zrotation
										JOINT RightHandIndex3
										{
											OFFSET -5.337898 0.000000 0.000000
											CHANNELS 3 Xrotation Yrotation Zrotation
											JOINT RightHandIndex4
											{
												OFFSET -4.409401 0.000000 0.000000
												CHANNELS 3 Xrotation Yrotation Zrotation
												End Site
												{
													OFFSET 0.000000 4.409363 0.014408
												}
											}
										}
									}
								}
								JOINT RightHandMiddle1
								{
									OFFSET -23.810097 0.000000 0.000000
									CHANNELS 3 Xrotation Yrotation Zrotation
									JOINT RightHandMiddle2
									{
										OFFSET -7.176498 0.000000 0.000000
										CHANNELS 3 Xrotation Yrotation Zrotation
										JOINT RightHandMiddle3
										{
											OFFSET -6.774902 0.000000 0.000000
											CHANNELS 3 Xrotation Yrotation Zrotation
											JOINT RightHandMiddle4
											{
												OFFSET -5.403328 0.000000 0.000000
												CHANNELS 3 Xrotation Yrotation Zrotation
												End Site
												{
													OFFSET 0.027702 5.403244 0.017457
												}
											}
										}
									}
								}
								JOINT RightHandRing1
								{
									OFFSET -22.908302 -0.839325 -6.020576
									CHANNELS 3 Xrotation Yrotation Zrotation
									JOINT RightHandRing2
									{
										OFFSET -6.337502 0.000000 0.000000
										CHANNELS 3 Xrotation Yrotation Zrotation
										JOINT RightHandRing3
										{
											OFFSET -5.779297 0.000000 0.000000
											CHANNELS 3 Xrotation Yrotation Zrotation
											JOINT RightHandRing4
											{
												OFFSET -4.965698 0.000000 0.000000
												CHANNELS 3 Xrotation Yrotation Zrotation
												End Site
												{
													OFFSET 0.000000 4.965668 0.016226
												}
											}
										}
									}
								}
								JOINT RightHandPinky1
								{
									OFFSET -20.037003 -1.530334 -10.950259
									CHANNELS 3 Xrotation Yrotation Zrotation
									JOINT RightHandPinky2
									{
										OFFSET -5.254700 0.000000 0.000000
										CHANNELS 3 Xrotation Yrotation Zrotation
										JOINT RightHandPinky3
										{
											OFFSET -4.810204 0.000000 0.000000
											CHANNELS 3 Xrotation Yrotation Zrotation
											JOINT RightHandPinky4
											{
												OFFSET -3.647202 0.000000 0.000000
												CHANNELS 3 Xrotation Yrotation Zrotation
												End Site
												{
													OFFSET 0.000000 3.647186 0.011917
												}
											}
										}
									}
								}
							}
						}
					}
				}
			}
		}
	}
	JOINT LeftUpLeg
	{
		OFFSET 15.427100 -6.655098 0.678600
		CHANNELS 3 Xrotation Yrotation Zrotation
		JOINT LeftLeg
		{
			OFFSET 4.081073 -39.591068 13.024000
			CHANNELS 3 Xrotation Yrotation Zrotation
			JOINT LeftFoot
			{
				OFFSET -4.081074 -37.707932 -15.979700
				CHANNELS 3 Xrotation Yrotation Zrotation
				JOINT LeftToeBase
				{
					OFFSET 5.346399 -15.068900 20.645000
					CHANNELS 3 Xrotation Yrotation Zrotation
					JOINT LeftToe_End
					{
						OFFSET 2.754700 0.931300 11.300900
						CHANNELS 3 Xrotation Yrotation Zrotation
						End Site
						{
							OFFSET 0.000000 11.669021 0.000000
						}
					}
				}
			}
		}
	}
	JOINT RightUpLeg
	{
		OFFSET -15.569500 -6.655098 0.678600
		CHANNELS 3 Xrotation Yrotation Zrotation
		JOINT RightLeg
		{
			OFFSET -4.081825 -39.591045 13.023800
			CHANNELS 3 Xrotation Yrotation Zrotation
			JOINT RightFoot
			{
				OFFSET 4.081824 -37.707954 -15.979600
				CHANNELS 3 Xrotation Yrotation Zrotation
				JOINT RightToeBase
				{
					OFFSET -5.346400 -15.068900 20.645000
					CHANNELS 3 Xrotation Yrotation Zrotation
					JOINT RightToe_End
					{
						OFFSET -2.754700 0.931300 11.300900
						CHANNELS 3 Xrotation Yrotation Zrotation
						End Site
						{
							OFFSET 0.000000 11.669021 0.000000
						}
					}
				}
			}
		}
	}
}
MOTION
Frames: 4
Frame Time: 0.033333
-1.984323 103.572838 13.759747 -23.074829 -5.180732 -2.505741 7.701520 -1.335346 0.371988 15.374076 -1.676404 -0.551058 15.374078 -1.676406 -0.551059 -11.803038 2.538410 0.513529 -20.543597 1.060039 1.922756 0.000001 -0.000000 -0.000000 -0.117978 -1.799432 36.289430 -52.783234 -25.523927 -11.661683 -14.597030 -27.801568 2.189043 12.412370 -2.032642 43.220481 -11.360190 -10.015379 28.397710 19.621119 23.755266 -10.341695 0.000008 0.000008 -0.000010 -0.000000 -0.000002 -0.000003 -7.847202 -3.444988 -67.091234 -4.890358 2.724758 -36.316563 -0.000000 0.000000 -0.000001 0.000000 -0.000000 -0.000000 -10.129918 -3.870839 -67.774273 -1.770918 1.712492 -28.157819 -0.000000 -0.000001 -0.000002 0.000000 0.000000 0.000000 -15.177608 7.295131 -70.201634 7.766215 -0.421200 -31.520049 -0.000001 -0.000007 0.000002 0.000001 -0.000001 0.000001 -16.482315 5.436035 -74.872793 8.342207 -0.186080 -18.883176 -0.000001 0.000001 -0.000002 0.000000 0.000001 -0.000000 9.813680 24.196324 -37.946076 -46.242194 23.161313 -4.673705 -22.075465 26.224214 3.020031 0.654813 10.544172 -45.154616 15.333565 1.500899 -10.491443 -10.396755 -3.067644 -10.223933 0.000002 0.000008 0.000001 -0.000000 0.000000 -0.000002 0.919886 3.496412 64.452213 1.727771 9.561647 38.866297 0.000002 0.000001 0.000002 -0.000002 -0.000001 -0.000001 -6.652418 -3.924345 64.485701 9.406016 5.988766 38.253642 -0.000004 -0.000011 0.000002 0.000000 -0.000001 -0.000001 -5.546312 1.390169 64.784802 0.234008 -1.791475 39.151782 0.000003 0.000000 -0.000003 -0.000000 -0.000001 -0.000002 -17.806370 -16.572291 61.043313 25.329478 3.861598 27.748058 0.000001 0.000007 0.000000 0.000001 0.000001 -0.000000 -91.535422 19.296422 27.784293 122.388602 -11.597029 6.406539 -31.133758 -4.782612 13.572583 -46.492213 -2.666927 -1.954468 -0.000001 -0.000000 -0.000000 -128.082480 -24.202828 -12.904884 125.246408 -10.769852 -18.600429 -9.762330 -6.622942 13.552403 -38.850102 6.007495 10.674947 -0.000001 -0.000000 0.000002 
-1.149141 104.039680 14.152214 -23.141569 -4.421467 -1.738808 7.695788 -1.460782 0.347393 15.370612 -1.518387 -0.269891 15.370618 -1.518389 -0.269891 -15.146846 0.989364 1.315772 -15.702429 4.490784 -0.416149 0.000002 -0.000000 -0.000000 -0.372248 -1.220957 35.843060 -60.531411 -26.686818 -18.875489 -15.832449 -26.453843 3.110434 19.487814 -2.903006 42.384363 -11.360729 -10.016844 28.402133 19.622720 23.757281 -10.341993 0.000008 0.000007 -0.000010 -0.000000 -0.000003 -0.000001 -7.847636 -3.445205 -67.096452 -4.890308 2.724751 -36.316478 0.000000 -0.000000 0.000003 0.000000 -0.000000 -0.000002 -10.131150 -3.871004 -67.778617 -1.771150 1.712102 -28.162210 -0.000001 -0.000000 -0.000001 0.000001 -0.000001 -0.000001 -15.179025 7.295217 -70.207248 7.766150 -0.421312 -31.521883 -0.000000 -0.000006 0.000001 0.000001 -0.000000 0.000002 -16.484253 5.436533 -74.878032 8.342205 -0.186080 -18.883171 -0.000000 -0.000000 -0.000002 -0.000000 -0.000001 -0.000001 9.227196 21.995499 -38.118968 -47.811283 24.995632 -2.374397 -23.561086 24.084483 3.164708 3.785284 11.911569 -45.240800 15.334155 1.500926 -10.490249 -10.395915 -3.067652 -10.222298 0.000003 0.000008 0.000000 0.000000 0.000000 -0.000000 0.917670 3.497356 64.481944 1.726782 9.562798 38.881873 0.000001 -0.000000 0.000001 -0.000001 -0.000001 -0.000001 -6.652708 -3.922733 64.517714 9.405936 5.988901 38.255230 -0.000005 -0.000012 0.000002 -0.000001 0.000001 -0.000001 -5.541434 1.392355 64.820510 0.233995 -1.791456 39.151720 0.000002 0.000001 -0.000002 -0.000000 0.000001 0.000001 -17.791331 -16.566422 61.098501 25.329651 3.861459 27.746149 0.000001 0.000006 0.000000 -0.000000 0.000001 -0.000000 -90.133628 21.105734 26.157698 122.286614 -12.307972 6.026757 -29.717214 -4.566436 12.770027 -46.303864 -1.712193 0.840141 0.000001 0.000000 0.000001 -128.576836 -17.373737 -16.302611 125.326581 -11.172817 -15.312497 -8.272936 -2.965559 5.223017 -40.046304 2.991553 19.121530 0.000001 0.000000 0.000001 
0.565327 105.342873 13.871628 -23.069196 -3.694021 -0.483673 7.651338 -1.432621 0.343899 15.288803 -1.357354 -0.035299 15.288788 -1.357353 -0.035300 -20.271918 -0.471678 0.487292 -9.107178 11.178371 -1.104959 -0.000000 -0.000000 0.000000 -0.637358 -0.417102 35.113559 -70.694029 -25.753928 -29.648915 -17.431309 -27.153287 4.702882 29.541845 -3.365361 41.483734 -11.360640 -10.016032 28.399817 19.621829 23.756040 -10.341917 0.000008 0.000006 -0.000010 0.000000 0.000002 0.000001 -7.847623 -3.444967 -67.093939 -4.890500 2.724593 -36.318718 -0.000000 0.000000 0.000002 0.000000 -0.000000 0.000001 -10.130780 -3.870904 -67.776418 -1.770854 1.712625 -28.156582 -0.000002 -0.000001 0.000000 0.000001 -0.000001 0.000000 -15.178538 7.295199 -70.202959 7.766230 -0.421162 -31.519035 -0.000001 -0.000006 0.000001 -0.000000 0.000001 0.000000 -16.483796 5.436220 -74.875061 8.342206 -0.186081 -18.883173 0.000000 0.000000 -0.000001 -0.000000 -0.000000 0.000000 8.246878 17.841289 -38.792094 -50.315541 26.670260 2.258878 -25.641852 22.746444 4.243177 7.665181 13.312679 -46.922921 15.334932 1.500949 -10.488550 -10.394700 -3.067652 -10.220032 0.000003 0.000008 0.000002 0.000000 0.000000 -0.000001 0.917459 3.498043 64.498610 1.724964 9.566363 38.913937 0.000001 -0.000002 0.000002 -0.000000 -0.000000 0.000000 -6.650336 -3.925321 64.536408 9.405550 5.989027 38.258451 -0.000002 -0.000011 0.000003 -0.000001 -0.000002 0.000001 -5.530142 1.389444 64.844081 0.234015 -1.791481 39.151635 0.000003 0.000002 -0.000002 -0.000000 0.000001 -0.000001 -17.775400 -16.580815 61.151442 25.329891 3.861278 27.743479 -0.000000 0.000008 -0.000000 -0.000000 -0.000001 -0.000000 -88.461045 25.767713 23.922951 120.782279 -12.384088 6.111167 -26.401929 -4.000950 10.934616 -44.111667 0.828260 6.106229 0.000001 0.000000 -0.000000 -123.817874 -7.410903 -25.351226 124.047888 -6.134911 -8.221182 -9.411666 2.909901 -10.671869 -40.707381 -2.350148 30.751147 -0.000000 0.000002 -0.000000 
2.830729 107.647247 12.570457 -22.737773 -3.598529 0.855889 7.570776 -1.046208 0.605301 15.131044 -0.945146 0.334343 15.131044 -0.945145 0.334345 -25.144740 -1.305984 -0.910028 -2.688657 19.796388 -0.998026 -0.000001 -0.000000 0.000000 -0.916484 0.532303 34.248529 -81.498753 -21.710692 -43.274743 -18.832116 -28.551673 7.957128 41.335048 -4.989719 41.061304 -11.358407 -10.010493 28.382633 19.615663 23.748452 -10.340777 0.000008 0.000008 -0.000012 -0.000000 -0.000001 -0.000001 -7.845798 -3.444271 -67.073571 -4.890577 2.724738 -36.317338 -0.000000 0.000000 0.000003 0.000000 -0.000001 -0.000003 -10.125817 -3.870366 -67.759588 -1.770090 1.713940 -28.142186 -0.000002 -0.000001 0.000001 0.000000 -0.000000 -0.000000 -15.172886 7.294728 -70.182256 7.766437 -0.420859 -31.513458 -0.000001 -0.000007 0.000001 -0.000000 0.000001 -0.000001 -16.475868 5.434225 -74.854960 8.342207 -0.186078 -18.883173 -0.000000 0.000002 -0.000000 -0.000001 0.000001 0.000001 7.013976 12.618532 -39.407620 -53.328075 29.389590 8.171561 -27.339835 21.063894 4.775757 12.033529 14.993379 -49.421838 15.331881 1.500913 -10.494967 -10.399246 -3.067687 -10.228606 0.000003 0.000008 0.000001 0.000000 0.000000 -0.000000 0.926856 3.493635 64.362116 1.730472 9.558885 38.824581 0.000002 -0.000000 0.000003 0.000001 -0.000000 0.000002 -6.651193 -3.930049 64.389532 9.406138 5.988433 38.249756 -0.000003 -0.000012 0.000001 -0.000000 0.000001 -0.000000 -5.560047 1.382773 64.678722 0.233977 -1.791446 39.151952 0.000002 0.000001 -0.000002 0.000000 0.000000 -0.000001 -17.851297 -16.594935 60.882749 25.328981 3.862041 27.753591 0.000000 0.000007 0.000000 0.000000 0.000002 -0.000000 -87.307583 29.338753 22.561194 117.154683 -13.665924 6.097506 -19.670125 -2.942245 6.526413 -42.705553 2.286379 10.825947 0.000006 -0.000000 -0.000001 -115.121623 -0.189109 -30.986844 120.085353 -1.823699 -3.034370 -9.566950 6.068784 -19.233005 -42.193255 -6.136205 39.284554 0.000000 -0.000001 -0.000000 
